<svg xmlns="http://www.w3.org/2000/svg" viewBox="0 0 480 85.46"><defs><style>.cls-1{isolation:isolate;}.cls-2{fill:#5d5897;mix-blend-mode:multiply;}.cls-3{fill:#2d313d;}</style></defs><title>Logo</title><g class="cls-1"><g id="Layer_2" data-name="Layer 2"><g id="Layer_1-2" data-name="Layer 1"><polygon class="cls-2" points="131.29 85.04 121.73 73.65 108.15 85.04 131.29 85.04"/><path class="cls-2" d="M211.78,84.89l25.42,0L166.43.79a2.23,2.23,0,0,0-3.14-.27L103,51.3,78.42,22.14a2.23,2.23,0,0,0-3.15-.27L0,85.24l30.29,0L74.62,47.86,106,85.06l32.56,0,20.6-17.34L173.66,85l25.42,0L174,55.13l7.45-6.27ZM146.57,52.77h0L121.78,73.64h0l-6.27-7.44h0L140.3,45.33h0l14.89-12.54h0l7.45-6.27L168.91,34Z"/><rect class="cls-2" x="172.9" y="25.51" width="19.47" height="19.47" transform="translate(20.07 125.64) rotate(-40)"/><rect class="cls-2" x="92.02" y="55.26" width="19.47" height="19.47" transform="translate(-17.97 80.61) rotate(-40)"/><path class="cls-2" d="M74.62,47.79,89.53,35.28,78.45,22.07a2.22,2.22,0,0,0-3.14-.27L62.1,32.88Z"/><rect class="cls-2" x="150.53" y="44.28" width="19.47" height="19.47" transform="translate(2.77 115.66) rotate(-40)"/><path class="cls-3" d="M248,15.82v9.63h12.83v3.88H248v13h-4.39V11.94h19.35v3.88Z"/><path class="cls-3" d="M269.67,23.83c.6-1.7,2.56-5.07,8.23-5.07v4a7.61,7.61,0,0,0-7.88,6.4V42.29h-4.27V25.92l-.34-6.61H269Z"/><path class="cls-3" d="M280.2,30.86c0-7.2,2.47-12.1,10.53-12.1s10.57,4.9,10.57,12.1-2.52,12-10.57,12S280.2,38.07,280.2,30.86Zm16.71,0c0-5.67-1.49-8.65-6.22-8.65s-6.18,3-6.18,8.65,1.49,8.53,6.18,8.53S296.91,36.57,296.91,30.86Z"/><path class="cls-3" d="M326.15,28.6l-.09,13.69H321.8l.08-13.3c0-3.92-.89-6.4-4.68-6.4-3.63,0-5.59,2.77-6.44,4.48V42.29H306.5V25.49l-.34-6.18h3.58l.64,3.88A9,9,0,0,1,318,18.8C323.72,18.8,326.15,21.23,326.15,28.6Z"/><path class="cls-3" d="M343.07,39v3.45h-2.95c-6.56,0-7.2-4.13-7.2-9V22.76H330V19.31h2.94V13l4.26-.81v7.12h5.63v3.45h-5.63V33.42c0,3.92.77,5.54,3.5,5.54Z"/><path class="cls-3" d="M375.54,42.29,369.79,31c-.73,0-1.49,0-2.3,0h-6.14V42.29H357V11.85h10.61c9.29,0,11.89,2.43,11.89,9.64,0,5.11-1.32,7.75-5.37,8.9l6.39,11.9ZM367.49,27.2c4.47,0,7.5-.34,7.5-5.71s-3-5.76-7.5-5.76h-6.14V27.15Z"/><path class="cls-3" d="M400.22,42.24l-.51-2.9c-1.45,2.09-4,3.41-7.93,3.41-5.71,0-7.93-2.3-7.93-6.9,0-7.29,6.56-7.08,15.3-7,0-4.86-.47-6.74-5-6.74s-5.46,2.56-5.46,4.22h-3.84c0-2.64.94-7.41,9.12-7.41,9.59,0,9.42,4.9,9.42,12v5.41l.39,5.92Zm-1.07-6.65v-4c-7,0-11.25-.09-11.25,4.3,0,2.26,1.19,3.84,4.73,3.84C395.7,39.77,398.26,38.41,399.15,35.59Z"/><path class="cls-3" d="M429.16,28.6l-.09,13.69h-4.26l.08-13.3c0-3.92-.89-6.4-4.69-6.4-3.62,0-5.58,2.77-6.43,4.48V42.29h-4.26V25.49l-.34-6.18h3.58l.64,3.88A9,9,0,0,1,421,18.8C426.73,18.8,429.16,21.23,429.16,28.6Z"/><path class="cls-3" d="M454.85,19.31l-.29,6.4V42.33c0,4.6-.09,10.18-10.53,10.18-9.8,0-9.16-7.92-9.16-7.92h4c0,.34-.3,4.64,5.5,4.64s6-3.07,6-6.86V39.64c-1.36,1.75-3.66,3.07-7.41,3.07-6.65,0-9.17-4.43-9.17-11.85s2.52-12,9.17-12a9.49,9.49,0,0,1,7.8,4.09l.59-3.67Zm-4.56,15.05V26.81a7.43,7.43,0,0,0-6.6-4.47c-3.88,0-5.63,3-5.63,8.52s1.75,8.4,5.63,8.4A6.34,6.34,0,0,0,450.29,34.36Z"/><path class="cls-3" d="M475.57,35.17h4.26c0,2.81-2.05,7.67-10.14,7.67-7.72,0-10.32-4.35-10.32-11.93s2.6-12.15,10.32-12.15c7.24,0,10.31,4.13,10.31,12.61H463.68c.08,5.2,1.4,8.19,6,8.19S475.52,36.7,475.57,35.17ZM463.8,28.26h11.9c-.52-4.13-2.26-6.26-6-6.26C465.76,22,464.23,24.34,463.8,28.26Z"/><path class="cls-3" d="M248,58.44v9.63h12.83V72H248v13h-4.39V54.56h19.35v3.88Z"/><path class="cls-3" d="M269.67,66.45c.6-1.71,2.56-5.07,8.23-5.07v4A7.6,7.6,0,0,0,270,71.73V84.9h-4.27V68.54l-.34-6.61H269Z"/><path class="cls-3" d="M280.2,73.48c0-7.2,2.47-12.1,10.53-12.1s10.57,4.9,10.57,12.1-2.52,12-10.57,12S280.2,80.68,280.2,73.48Zm16.71,0c0-5.67-1.49-8.65-6.22-8.65s-6.18,3-6.18,8.65S286,82,290.69,82,296.91,79.19,296.91,73.48Z"/><path class="cls-3" d="M326.15,71.22l-.09,13.68H321.8l.08-13.29c0-3.92-.89-6.4-4.68-6.4-3.63,0-5.59,2.77-6.44,4.48V84.9H306.5V68.11l-.34-6.18h3.58l.64,3.88A9,9,0,0,1,318,61.42C323.72,61.42,326.15,63.85,326.15,71.22Z"/><path class="cls-3" d="M343.07,81.58V85h-2.95c-6.56,0-7.2-4.13-7.2-9V65.38H330V61.93h2.94V55.62l4.26-.81v7.12h5.63v3.45h-5.63V76c0,3.92.77,5.54,3.5,5.54Z"/><path class="cls-3" d="M344.43,69.6h10.48v3.33H344.43Z"/><path class="cls-3" d="M380.57,81V84.9H360.45V54.56h19.86v3.88H364.84V67.3h13.34v3.79H364.84V81Z"/><path class="cls-3" d="M404.31,71.22l-.09,13.68H400l.09-13.29c0-3.92-.9-6.4-4.69-6.4-3.62,0-5.59,2.77-6.44,4.48V84.9h-4.26V68.11l-.34-6.18h3.58l.64,3.88a9,9,0,0,1,7.63-4.39C401.88,61.42,404.31,63.85,404.31,71.22Z"/><path class="cls-3" d="M425.83,84.9l-.55-3.23c-1.32,2-3.67,3.66-7.85,3.66-6.64,0-9.16-4.43-9.16-11.85s2.52-12,9.16-12a9.67,9.67,0,0,1,7.38,3.19V52.51h4.26V78.68l.34,6.22Zm-1-7.75V69.43A7.43,7.43,0,0,0,418.24,65c-3.87,0-5.62,3-5.62,8.52s1.75,8.4,5.62,8.4C422.46,81.88,424.25,79.24,424.81,77.15Z"/></g></g></g></svg>