<svg xmlns="http://www.w3.org/2000/svg" viewBox="0 0 229.28 155.74"><defs><style>.cls-1,.cls-3{font-size:43.77px;font-family:FranklinGothic-Medium, Franklin Gothic Medium;}.cls-1,.cls-3,.cls-5{fill:#231f20;}.cls-1{letter-spacing:-0.12em;}.cls-2{letter-spacing:-0.14em;}.cls-3{letter-spacing:-0.14em;}.cls-4{letter-spacing:-0.14em;}</style></defs><title>frfeAsset 5</title><g id="Layer_2" data-name="Layer 2"><g id="Layer_1-2" data-name="Layer 1"><text class="cls-1" transform="translate(6.77 105.36)">FRONT <tspan class="cls-2" x="107.02" y="0">RANGE</tspan></text><text class="cls-3" transform="translate(25.63 142.32)">FRONT - E<tspan class="cls-4" x="128.87" y="0">ND</tspan></text><path class="cls-5" d="M51.63,49.8l18-15.8c2.43-2.14,7.14-8.11,10.78-6.8,1.56.56,3.37,2.82,4.6,3.85l4.6,3.85L127.9,67c2.45,2.05,6-1.47,3.54-3.54-15.58-13-31-26.22-46.75-39.11-5.59-4.59-9.4-1.95-14.31,2.37L48.09,46.26c-2.42,2.13,1.13,5.65,3.54,3.54Z"/><path class="cls-5" d="M106.78,40.81l28.33-24.89L141.82,10c3.64-3.2,6.12-6.28,11.42-3,5.11,3.13,9.73,8.14,14.33,12l57.33,48c2.45,2.05,6-1.47,3.54-3.54L162.05,7.88C158.34,4.77,154-.56,148.67,0c-5,.57-9.09,5.3-12.63,8.41l-32.8,28.82c-2.42,2.13,1.13,5.65,3.54,3.54Z"/><path class="cls-5" d="M4.36,68.48C12.09,61.87,20.13,55.62,28,49.19c1.63-1.33,3.24-2.67,4.86-4s1.62-2.09,4-.53a50.88,50.88,0,0,1,4.4,3.75l22,18.77c2.43,2.08,6-1.44,3.54-3.54L41.83,42.38c-2.35-2-4.6-4.76-8-3.8-2.14.61-4,2.66-5.68,4.05C19.1,50.13,9.76,57.31.83,64.95c-2.45,2.09,1.1,5.62,3.54,3.54Z"/></g></g></svg>