<svg xmlns="http://www.w3.org/2000/svg" viewBox="0 0 500 500"><defs><style>.cls-1{fill:#5d5897;}.cls-2{fill:#fff;}</style></defs><title>Logo social circular</title><g id="Layer_2" data-name="Layer 2"><g id="Layer_1-2" data-name="Layer 1"><circle class="cls-1" cx="250" cy="250" r="250"/><path class="cls-2" d="M49.4,185.47v17H72v6.83H49.4v22.84H41.67V178.63h34.1v6.84Z"/><path class="cls-2" d="M87.64,199.59c1-3,4.5-8.94,14.5-8.94v7c-10.75,0-13.3,8.41-13.9,11.27v23.21H80.73V203.27l-.6-11.64h6.31Z"/><path class="cls-2" d="M106.19,212c0-12.7,4.36-21.34,18.56-21.34s18.63,8.64,18.63,21.34-4.44,21.11-18.63,21.11S106.19,224.68,106.19,212Zm29.45,0c0-10-2.63-15.25-11-15.25S113.78,202,113.78,212s2.63,15,10.89,15S135.64,222.05,135.64,212Z"/><path class="cls-2" d="M187.17,208,187,232.12h-7.51l.15-23.44c0-6.91-1.58-11.27-8.27-11.27-6.38,0-9.84,4.89-11.34,7.89v26.82h-7.51v-29.6l-.6-10.89h6.31l1.12,6.84a16,16,0,0,1,13.45-7.74C182.89,190.73,187.17,195,187.17,208Z"/><path class="cls-2" d="M217,226.26v6.08H211.8c-11.56,0-12.69-7.28-12.69-15.85V197.71h-5.18v-6.08h5.18V180.51l7.51-1.43v12.55h9.92v6.08h-9.92v18.78c0,6.92,1.35,9.77,6.16,9.77Z"/><path class="cls-2" d="M274.23,232.12l-10.15-19.83c-1.27.07-2.63.07-4.05.07H249.21v19.76h-7.74V178.48h18.71c16.37,0,21,4.28,21,17,0,9-2.33,13.67-9.47,15.7l11.27,21ZM260,205.53c7.89,0,13.22-.6,13.22-10.07s-5.33-10.14-13.22-10.14H249.21v20.13Z"/><path class="cls-2" d="M317.72,232l-.9-5.1c-2.56,3.68-7.07,6-14,6-10.06,0-14-4.06-14-12.17,0-12.85,11.57-12.47,27-12.4-.08-8.56-.83-11.87-8.79-11.87s-9.62,4.51-9.62,7.44h-6.76c0-4.66,1.66-13.07,16.08-13.07,16.9,0,16.6,8.64,16.6,21.18v9.54L324,232Zm-1.88-11.71v-7c-12.4-.08-19.83-.15-19.83,7.59,0,4,2.1,6.76,8.34,6.76C309.75,227.69,314.26,225.28,315.84,220.33Z"/><path class="cls-2" d="M368.72,208l-.15,24.11h-7.51l.15-23.44c0-6.91-1.58-11.27-8.27-11.27-6.38,0-9.84,4.89-11.34,7.89v26.82h-7.51v-29.6l-.6-10.89h6.31l1.13,6.84a15.94,15.94,0,0,1,13.44-7.74C364.44,190.73,368.72,195,368.72,208Z"/><path class="cls-2" d="M414,191.63l-.53,11.27v29.29c0,8.12-.15,18-18.56,18-17.27,0-16.15-14-16.15-14h7c0,.6-.53,8.18,9.69,8.18,10,0,10.52-5.4,10.52-12.09v-4.81c-2.41,3.08-6.46,5.41-13.07,5.41-11.72,0-16.15-7.81-16.15-20.88s4.43-21.11,16.15-21.11a16.69,16.69,0,0,1,13.74,7.21l1.06-6.46Zm-8,26.52v-13.3c-1.36-2.7-4.81-7.89-11.65-7.89s-9.91,5.34-9.91,15,3.08,14.8,9.91,14.8C401.92,226.79,405.08,221.83,406,218.15Z"/><path class="cls-2" d="M450.52,219.57H458c0,5-3.6,13.53-17.88,13.53-13.59,0-18.18-7.67-18.18-21s4.59-21.41,18.18-21.41c12.77,0,18.18,7.29,18.18,22.24H429.56c.15,9.16,2.48,14.42,10.59,14.42S450.45,222.28,450.52,219.57ZM429.79,207.4h21c-.91-7.28-4-11-10.6-11C433.24,196.36,430.54,200.49,429.79,207.4Z"/><path class="cls-2" d="M49.4,260.59v17H72v6.84H49.4v22.83H41.67V253.75h34.1v6.84Z"/><path class="cls-2" d="M87.64,274.71c1-3,4.5-8.94,14.5-8.94v7c-10.75,0-13.3,8.42-13.9,11.27v23.21H80.73V278.39l-.6-11.65h6.31Z"/><path class="cls-2" d="M106.19,287.1c0-12.69,4.36-21.33,18.56-21.33s18.63,8.64,18.63,21.33-4.44,21.11-18.63,21.11S106.19,299.8,106.19,287.1Zm29.45,0c0-10-2.63-15.25-11-15.25s-10.89,5.26-10.89,15.25,2.63,15,10.89,15S135.64,297.17,135.64,287.1Z"/><path class="cls-2" d="M187.17,283.12,187,307.23h-7.51l.15-23.43c0-6.91-1.58-11.27-8.27-11.27-6.38,0-9.84,4.88-11.34,7.89v26.81h-7.51V277.64l-.6-10.9h6.31l1.12,6.84a16,16,0,0,1,13.45-7.74C182.89,265.84,187.17,270.13,187.17,283.12Z"/><path class="cls-2" d="M217,301.38v6.08H211.8c-11.56,0-12.69-7.29-12.69-15.85V272.83h-5.18v-6.09h5.18V255.63l7.51-1.43v12.54h9.92v6.09h-9.92v18.78c0,6.91,1.35,9.77,6.16,9.77Z"/><path class="cls-2" d="M219.39,280.27h18.48v5.86H219.39Z"/><path class="cls-2" d="M283.09,300.4v6.83H247.63V253.75h35v6.84H255.37v15.62h23.51v6.69H255.37v17.5Z"/><path class="cls-2" d="M324.93,283.12l-.15,24.11h-7.51l.15-23.43c0-6.91-1.58-11.27-8.27-11.27-6.38,0-9.84,4.88-11.34,7.89v26.81H290.3V277.64l-.6-10.9H296l1.12,6.84a16,16,0,0,1,13.45-7.74C320.65,265.84,324.93,270.13,324.93,283.12Z"/><path class="cls-2" d="M362.86,307.23l-1-5.7c-2.32,3.6-6.46,6.46-13.82,6.46-11.72,0-16.15-7.82-16.15-20.89S336.34,266,348.06,266a17,17,0,0,1,13,5.64V250.14h7.51v46.13l.6,11Zm-1.8-13.67V280c-1.35-2.78-4.88-7.89-11.57-7.89-6.84,0-9.92,5.33-9.92,15s3.08,14.8,9.92,14.8C356.93,301.9,360.08,297.24,361.06,293.56Z"/><path class="cls-2" d="M271.14,103.59l.07-.06L309.52,149l32.15-.05L252.17,42.67a2.83,2.83,0,0,0-4-.34l-76.28,64.22,0,0h0l-17-20.22,0,0-14-16.7a2.82,2.82,0,0,0-4-.34l-16.7,14,.05.06L41.67,149.47l38.3-.06,56.08-47.21,19.71,23.42,13.09,15.59,0,0,6.79,8.06,16,0h16.1l0,0h9.15l26-21.88,0,0,.07-.06,18.39,21.84,32.14-.05-31.71-37.67,9.34-7.87Zm-75.45,31.22h0l-7.93-9.42h0L219.11,99,238,83.14l9.42-7.93,7.93,9.41L227,108.41h0Z"/></g></g></svg>