<svg xmlns="http://www.w3.org/2000/svg" viewBox="0 0 207.86 87.17"><defs><style>.cls-1{fill:#5d5696;}</style></defs><title>dasd300ppi</title><g id="Layer_2" data-name="Layer 2"><g id="Layer_1-2" data-name="Layer 1"><path class="cls-1" d="M182.64,48.63c-8.41,0-14.79-5.23-19.06-10.42L156,20h-4.72l-6.17,14.88a43.12,43.12,0,0,1-4.92-5.9l-7.9-19h-4.13l-7.57,18.28h0l0,0L108.74,0h-4.19L93.83,25.89,89.72,16H85.49L78.11,33.84a35.56,35.56,0,0,1-5.54,5.49L66.19,24H62.3L54.77,42.19a39.91,39.91,0,0,1-7.25,5.71,36.37,36.37,0,0,0-3.32,1.8A33.33,33.33,0,0,1,29.77,53C10,53,.48,72,.48,72H104.39L94.57,47.75H98.2l8.5,21.37,8.46-21.37h3.62L109,72h98.44S199.39,48.63,182.64,48.63ZM104.75,3h3.81l10.22,25.25h-3.63l-8.5-21.37L98.2,28.25H94.57Zm16.1,42.25L91.51,33l1-2.68L121.85,42.6Z"/><path class="cls-1" d="M0,76.56H6.87v2.11H2.26v2.1H6.52v2.11H2.26v4H0Z"/><path class="cls-1" d="M8.54,76.56h4a7.09,7.09,0,0,1,1.49.16,3.56,3.56,0,0,1,1.23.51,2.61,2.61,0,0,1,.84,1,3.43,3.43,0,0,1,.31,1.52,3,3,0,0,1-.57,1.86,2.52,2.52,0,0,1-1.65,1l2.61,4.37H14.05l-2.14-4.14H10.8v4.14H8.54Zm2.26,4.29h1.33l.64,0a1.76,1.76,0,0,0,.62-.13,1,1,0,0,0,.45-.34,1.08,1.08,0,0,0,.18-.66,1.09,1.09,0,0,0-.16-.63,1.16,1.16,0,0,0-.4-.36,1.82,1.82,0,0,0-.57-.16,4.44,4.44,0,0,0-.62-.05H10.8Z"/><path class="cls-1" d="M17.4,81.74a5.78,5.78,0,0,1,.42-2.25A4.69,4.69,0,0,1,19,77.77a5,5,0,0,1,1.75-1.09,6.62,6.62,0,0,1,4.42,0,5,5,0,0,1,1.75,1.09A4.69,4.69,0,0,1,28,79.49,6.24,6.24,0,0,1,28,84a4.74,4.74,0,0,1-1.15,1.71,4.85,4.85,0,0,1-1.75,1.09,6.62,6.62,0,0,1-4.42,0A4.85,4.85,0,0,1,19,85.7,4.74,4.74,0,0,1,17.82,84,5.78,5.78,0,0,1,17.4,81.74Zm2.35,0A3.79,3.79,0,0,0,20,83.07a3.23,3.23,0,0,0,.64,1.06,3,3,0,0,0,1,.69,3.56,3.56,0,0,0,2.62,0,2.93,2.93,0,0,0,1-.69,3.09,3.09,0,0,0,.65-1.06,3.79,3.79,0,0,0,.22-1.33,3.83,3.83,0,0,0-.22-1.33,3.09,3.09,0,0,0-.65-1.06,3,3,0,0,0-1-.7,3.7,3.7,0,0,0-2.62,0,3,3,0,0,0-1,.7A3.23,3.23,0,0,0,20,80.41,3.83,3.83,0,0,0,19.75,81.74Z"/><path class="cls-1" d="M30.11,76.56h3.07l4.35,7.19h0V76.56h2.26V86.91h-3L32.4,79.55h0v7.36H30.11Z"/><path class="cls-1" d="M43.91,78.58H41v-2h8.1v2H46.17v8.33H43.91Z"/><path class="cls-1" d="M54.52,76.56h4a7.16,7.16,0,0,1,1.49.16,3.43,3.43,0,0,1,1.22.51,2.44,2.44,0,0,1,.84,1,3.29,3.29,0,0,1,.31,1.52,3,3,0,0,1-.56,1.86,2.57,2.57,0,0,1-1.65,1l2.61,4.37H60l-2.14-4.14H56.77v4.14H54.52Zm2.25,4.29h1.34l.64,0a1.66,1.66,0,0,0,.61-.13,1,1,0,0,0,.46-.34,1.08,1.08,0,0,0,.18-.66,1.09,1.09,0,0,0-.16-.63,1.16,1.16,0,0,0-.4-.36,2,2,0,0,0-.57-.16,4.44,4.44,0,0,0-.62-.05H56.77Z"/><path class="cls-1" d="M67.81,76.56h1.87l4.45,10.35H71.59l-.89-2.19h-4l-.86,2.19H63.38Zm.87,3-1.25,3.22h2.51Z"/><path class="cls-1" d="M75.26,76.56h3.06l4.36,7.19h0V76.56H85V86.91H82l-4.47-7.36h0v7.36H75.26Z"/><path class="cls-1" d="M96.43,86.18a8.25,8.25,0,0,1-2.08.76,10.17,10.17,0,0,1-2.21.23,6.13,6.13,0,0,1-2.22-.38,4.93,4.93,0,0,1-1.75-1.09A5,5,0,0,1,87,84a6.38,6.38,0,0,1,0-4.5,5,5,0,0,1,1.15-1.72,5.08,5.08,0,0,1,1.75-1.09,6.35,6.35,0,0,1,2.22-.38,8.08,8.08,0,0,1,2.26.3,4.46,4.46,0,0,1,1.82,1l-1.6,1.75a3.12,3.12,0,0,0-1-.73,3.77,3.77,0,0,0-1.44-.24,3.4,3.4,0,0,0-1.31.24,3,3,0,0,0-1,.7,3.07,3.07,0,0,0-.64,1.06A3.83,3.83,0,0,0,89,81.74a3.79,3.79,0,0,0,.23,1.33,3.07,3.07,0,0,0,.64,1.06,3,3,0,0,0,1,.69,3.22,3.22,0,0,0,1.31.25,4.34,4.34,0,0,0,1.27-.17,4.26,4.26,0,0,0,.85-.34V82.88H92.43V80.77h4Z"/><path class="cls-1" d="M98.58,76.56h7v2.11h-4.7V80.6h4.44v2.1h-4.44v2.11h5v2.1H98.58Z"/><path class="cls-1" d="M122.87,76.56h6.87v2.11h-4.62v2.1h4.27v2.11h-4.27v4h-2.25Z"/><path class="cls-1" d="M131.41,76.56h4a7.16,7.16,0,0,1,1.49.16,3.43,3.43,0,0,1,1.22.51,2.44,2.44,0,0,1,.84,1,3.29,3.29,0,0,1,.31,1.52,3,3,0,0,1-.56,1.86,2.57,2.57,0,0,1-1.65,1l2.61,4.37h-2.71l-2.14-4.14h-1.12v4.14h-2.25Zm2.25,4.29H135l.64,0a1.66,1.66,0,0,0,.61-.13,1,1,0,0,0,.46-.34,1.08,1.08,0,0,0,.18-.66,1.09,1.09,0,0,0-.16-.63,1.16,1.16,0,0,0-.4-.36,2,2,0,0,0-.57-.16,4.44,4.44,0,0,0-.62-.05h-1.48Z"/><path class="cls-1" d="M140.27,81.74a6,6,0,0,1,.41-2.25,5,5,0,0,1,1.15-1.72,5.17,5.17,0,0,1,1.75-1.09,6.39,6.39,0,0,1,2.22-.38,6.29,6.29,0,0,1,2.21.38,5,5,0,0,1,1.75,1.09,4.82,4.82,0,0,1,1.15,1.72,6.38,6.38,0,0,1,0,4.5,4.92,4.92,0,0,1-2.9,2.8,6.07,6.07,0,0,1-2.21.38,6.16,6.16,0,0,1-2.22-.38,4.92,4.92,0,0,1-2.9-2.8A6,6,0,0,1,140.27,81.74Zm2.34,0a3.79,3.79,0,0,0,.23,1.33,3.07,3.07,0,0,0,.64,1.06,3,3,0,0,0,1,.69,3.56,3.56,0,0,0,2.62,0,2.93,2.93,0,0,0,1-.69,3.09,3.09,0,0,0,.65-1.06,3.79,3.79,0,0,0,.22-1.33,3.83,3.83,0,0,0-.22-1.33,3.09,3.09,0,0,0-.65-1.06,3,3,0,0,0-1-.7,3.7,3.7,0,0,0-2.62,0,3,3,0,0,0-1,.7,3.07,3.07,0,0,0-.64,1.06A3.83,3.83,0,0,0,142.61,81.74Z"/><path class="cls-1" d="M153,76.56H156l4.36,7.19h0V76.56h2.25V86.91h-3l-4.47-7.36h0v7.36H153Z"/><path class="cls-1" d="M166.78,78.58h-2.92v-2H172v2H169v8.33h-2.26Z"/><path class="cls-1" d="M175.47,84.15h-3.56V82.4h3.56Z"/><path class="cls-1" d="M177.37,76.56h7v2.11h-4.7V80.6h4.44v2.1h-4.44v2.11h5v2.1h-7.22Z"/><path class="cls-1" d="M186.5,76.56h3.06l4.36,7.19h0V76.56h2.25V86.91h-2.95l-4.47-7.36h0v7.36H186.5Z"/><path class="cls-1" d="M198.41,76.56h3.39a9.87,9.87,0,0,1,2.34.28,5.54,5.54,0,0,1,1.93.9,4.39,4.39,0,0,1,1.31,1.62,5.48,5.48,0,0,1,.48,2.41,5,5,0,0,1-.47,2.21,4.66,4.66,0,0,1-1.27,1.61,5.56,5.56,0,0,1-1.83,1,6.92,6.92,0,0,1-2.19.34h-3.69Zm2.26,8.25h1.17a6.73,6.73,0,0,0,1.46-.16,3.1,3.1,0,0,0,1.16-.54,2.54,2.54,0,0,0,.78-1,3.62,3.62,0,0,0,.28-1.48,3,3,0,0,0-.28-1.32,2.68,2.68,0,0,0-.76-.93,3.4,3.4,0,0,0-1.13-.55,5,5,0,0,0-1.35-.18h-1.33Z"/></g></g></svg>