<svg xmlns="http://www.w3.org/2000/svg" viewBox="0 0 206.97 72"><defs><style>.cls-1{fill:#5d5696;}.cls-2{fill:#fff;}</style></defs><title>Asset 7300ppi</title><g id="Layer_2" data-name="Layer 2"><g id="Layer_1-2" data-name="Layer 1"><path class="cls-1" d="M182.17,48.63c-8.42,0-14.8-5.23-19.07-10.42L155.53,20H150.8l-6.16,14.88a43.94,43.94,0,0,1-4.93-5.9l-7.9-19h-4.13l-7.57,18.28h0s0,0,0,0L108.27,0h-4.2L93.35,25.89,89.24,16H85L77.63,33.84a35.48,35.48,0,0,1-5.53,5.49L65.72,24h-3.9L54.29,42.19a40.16,40.16,0,0,1-7.24,5.71,35.27,35.27,0,0,0-3.33,1.8A33.3,33.3,0,0,1,29.29,53C9.51,53,0,72,0,72H103.91L94.1,47.75h3.62l8.5,21.37,8.46-21.37h3.62L108.53,72H207S198.91,48.63,182.17,48.63ZM104.27,3h3.81L118.3,28.25h-3.62L106.17,6.88,97.72,28.25H94.1Zm16.11,42.25L91,33l1-2.68L121.37,42.6Z"/><path class="cls-2" d="M16,61.18h4.73v1.45H17.54v1.44h2.94v1.45H17.54v2.77H16Z"/><path class="cls-2" d="M21.87,61.18h2.72a4.76,4.76,0,0,1,1,.11,2.39,2.39,0,0,1,.85.35,1.67,1.67,0,0,1,.57.66,2.19,2.19,0,0,1,.22,1,2.09,2.09,0,0,1-.39,1.28,1.75,1.75,0,0,1-1.14.67l1.8,3H25.65l-1.47-2.84h-.76v2.84H21.87Zm1.55,2.94h1.35A1.43,1.43,0,0,0,25.2,64a.73.73,0,0,0,.31-.24.71.71,0,0,0,.13-.45.78.78,0,0,0-.11-.43.83.83,0,0,0-.28-.25,1.48,1.48,0,0,0-.39-.11l-.43,0h-1Z"/><path class="cls-2" d="M28,64.74a4,4,0,0,1,.28-1.55,3.36,3.36,0,0,1,2-1.93,4.57,4.57,0,0,1,3,0,3.36,3.36,0,0,1,2,1.93,4.43,4.43,0,0,1,0,3.1,3.6,3.6,0,0,1-.79,1.18,3.46,3.46,0,0,1-1.21.74,4.41,4.41,0,0,1-3,0A3.46,3.46,0,0,1,29,67.47a3.6,3.6,0,0,1-.79-1.18A4.07,4.07,0,0,1,28,64.74Zm1.61,0a2.51,2.51,0,0,0,.16.92,2,2,0,0,0,.44.72,2.14,2.14,0,0,0,.69.48,2.47,2.47,0,0,0,1.8,0,2.14,2.14,0,0,0,.69-.48,2,2,0,0,0,.44-.72,2.72,2.72,0,0,0,0-1.84,2.16,2.16,0,0,0-.44-.73,2,2,0,0,0-.69-.47,2.47,2.47,0,0,0-1.8,0,2,2,0,0,0-.69.47,2.16,2.16,0,0,0-.44.73A2.51,2.51,0,0,0,29.57,64.74Z"/><path class="cls-2" d="M36.7,61.18h2.1l3,4.94h0V61.18h1.55v7.11h-2l-3.07-5.06h0v5.06H36.7Z"/><path class="cls-2" d="M46.19,62.57h-2V61.18h5.57v1.39h-2v5.72H46.19Z"/><path class="cls-2" d="M53.48,61.18H56.2a4.76,4.76,0,0,1,1,.11,2.31,2.31,0,0,1,.85.35,1.78,1.78,0,0,1,.58.66,2.32,2.32,0,0,1,.21,1,2.09,2.09,0,0,1-.39,1.28,1.75,1.75,0,0,1-1.13.67l1.79,3H57.27L55.8,65.45H55v2.84H53.48ZM55,64.12h1.36a1.43,1.43,0,0,0,.42-.09.67.67,0,0,0,.31-.24.65.65,0,0,0,.13-.45.78.78,0,0,0-.11-.43.75.75,0,0,0-.28-.25,1.38,1.38,0,0,0-.39-.11,3.11,3.11,0,0,0-.43,0H55Z"/><path class="cls-2" d="M62.62,61.18H63.9L67,68.29H65.21l-.6-1.5H61.87l-.59,1.5H59.57Zm.59,2.07-.85,2.21h1.72Z"/><path class="cls-2" d="M67.74,61.18h2.11l3,4.94h0V61.18h1.55v7.11h-2l-3.07-5.06h0v5.06H67.74Z"/><path class="cls-2" d="M82.3,67.79a5.41,5.41,0,0,1-1.44.52,6.94,6.94,0,0,1-1.52.17,4.19,4.19,0,0,1-1.52-.27,3.51,3.51,0,0,1-1.2-.74,3.45,3.45,0,0,1-.79-1.18,4.29,4.29,0,0,1,0-3.1A3.36,3.36,0,0,1,76.62,62a3.53,3.53,0,0,1,1.2-.75A4.41,4.41,0,0,1,79.34,61a5.45,5.45,0,0,1,1.56.21,3,3,0,0,1,1.25.7l-1.1,1.21a2.14,2.14,0,0,0-.71-.5,2.46,2.46,0,0,0-1-.17,2.19,2.19,0,0,0-.9.17,2,2,0,0,0-.69.47,2.16,2.16,0,0,0-.44.73,2.73,2.73,0,0,0,0,1.84,2,2,0,0,0,.44.72,2.14,2.14,0,0,0,.69.48,2.37,2.37,0,0,0,.9.17,2.88,2.88,0,0,0,.88-.12,2.79,2.79,0,0,0,.58-.23V65.52H79.54V64.07H82.3Z"/><path class="cls-2" d="M83.78,61.18h4.78v1.45H85.33V64h3V65.4h-3v1.45h3.41v1.44h-5Z"/><path class="cls-2" d="M123.47,61.18h4.73v1.45H125v1.44H128v1.45H125v2.77h-1.55Z"/><path class="cls-2" d="M129.35,61.18h2.72a4.76,4.76,0,0,1,1,.11,2.39,2.39,0,0,1,.85.35,1.67,1.67,0,0,1,.57.66,2.19,2.19,0,0,1,.22,1,2.09,2.09,0,0,1-.39,1.28,1.75,1.75,0,0,1-1.14.67l1.8,3h-1.87l-1.47-2.84h-.76v2.84h-1.55Zm1.55,2.94h1.35a1.43,1.43,0,0,0,.43-.09.73.73,0,0,0,.31-.24.71.71,0,0,0,.13-.45.78.78,0,0,0-.11-.43.83.83,0,0,0-.28-.25,1.48,1.48,0,0,0-.39-.11l-.43,0h-1Z"/><path class="cls-2" d="M135.44,64.74a4,4,0,0,1,.28-1.55,3.36,3.36,0,0,1,2-1.93,4.57,4.57,0,0,1,3,0,3.36,3.36,0,0,1,2,1.93,4.43,4.43,0,0,1,0,3.1,3.6,3.6,0,0,1-.79,1.18,3.46,3.46,0,0,1-1.21.74,4.41,4.41,0,0,1-3,0,3.46,3.46,0,0,1-1.21-.74,3.6,3.6,0,0,1-.79-1.18A4.07,4.07,0,0,1,135.44,64.74Zm1.61,0a2.51,2.51,0,0,0,.16.92,2,2,0,0,0,.44.72,2.14,2.14,0,0,0,.69.48,2.47,2.47,0,0,0,1.8,0,2.14,2.14,0,0,0,.69-.48,2,2,0,0,0,.44-.72,2.73,2.73,0,0,0,0-1.84,2.16,2.16,0,0,0-.44-.73,2,2,0,0,0-.69-.47,2.47,2.47,0,0,0-1.8,0,2,2,0,0,0-.69.47,2.16,2.16,0,0,0-.44.73A2.51,2.51,0,0,0,137.05,64.74Z"/><path class="cls-2" d="M144.18,61.18h2.1l3,4.94h0V61.18h1.55v7.11h-2l-3.07-5.06h0v5.06h-1.55Z"/><path class="cls-2" d="M153.67,62.57h-2V61.18h5.57v1.39h-2v5.72h-1.55Z"/><path class="cls-2" d="M159.64,66.4h-2.45V65.19h2.45Z"/><path class="cls-2" d="M161,61.18h4.78v1.45H162.5V64h3.05V65.4H162.5v1.45h3.41v1.44h-5Z"/><path class="cls-2" d="M167.22,61.18h2.11l3,4.94h0V61.18h1.55v7.11h-2l-3.07-5.06h0v5.06h-1.55Z"/><path class="cls-2" d="M175.42,61.18h2.32a6.46,6.46,0,0,1,1.61.19,3.79,3.79,0,0,1,1.33.62,2.91,2.91,0,0,1,.9,1.11,3.81,3.81,0,0,1,.33,1.66,3.5,3.5,0,0,1-.32,1.52,3.41,3.41,0,0,1-.87,1.11,4,4,0,0,1-1.26.67,4.72,4.72,0,0,1-1.51.23h-2.53ZM177,66.85h.8a4.44,4.44,0,0,0,1-.11,2.19,2.19,0,0,0,.8-.37,1.71,1.71,0,0,0,.54-.67,2.41,2.41,0,0,0,.19-1,2,2,0,0,0-.19-.91,1.93,1.93,0,0,0-.52-.64,2.36,2.36,0,0,0-.78-.38,3.48,3.48,0,0,0-.93-.12H177Z"/></g></g></svg>