<svg xmlns="http://www.w3.org/2000/svg" viewBox="0 0 172 172"><defs><style>.cls-1{fill:#5d5696;}.cls-2{fill:#fff;}.cls-3{fill:#5f6446;}.cls-4{fill:#313440;}</style></defs><title>frfe3300ppi</title><g id="Layer_2" data-name="Layer 2"><g id="Layer_1-2" data-name="Layer 1"><circle class="cls-1" cx="86" cy="86" r="86"/><path class="cls-2" d="M139.22,75.6c-5.7,0-10-3.53-12.9-7L121.2,56.24H118l-4.17,10.07a29.92,29.92,0,0,1-3.33-4l-5.34-12.83h-2.79L97.25,61.84h0l0,0-8-19.11H86.4L79.15,60.22l-2.79-6.69H73.51l-5,12.07a23.89,23.89,0,0,1-3.74,3.71L60.45,59H57.82l-5.09,12.3a27.53,27.53,0,0,1-4.9,3.86,23,23,0,0,0-2.25,1.22,22.54,22.54,0,0,1-9.76,2.21C22.44,78.54,16,91.41,16,91.41H156S150.54,75.6,139.22,75.6Z"/><path class="cls-1" d="M96,75,89.14,92.09H86.56L79.65,75H82.1l5.75,14.46L93.57,75Z"/><path class="cls-1" d="M79.65,61.82l6.88-17.08h2.58L96,61.82H93.57L87.82,47.36,82.1,61.82Z"/><path class="cls-3" d="M77.58,65.06l.67-1.82L98.1,71.53l-.67,1.79Z"/><path class="cls-4" d="M86,172a86,86,0,1,1,86-86A86.1,86.1,0,0,1,86,172ZM86,11.86A74.14,74.14,0,1,0,160.14,86,74.23,74.23,0,0,0,86,11.86Z"/><path class="cls-2" d="M39.36,103.34h6v1.86H41.35v1.86h3.76v1.85H41.35v3.56h-2Z"/><path class="cls-2" d="M46.89,103.34h3.49a6.12,6.12,0,0,1,1.31.14,3.08,3.08,0,0,1,1.08.45,2.26,2.26,0,0,1,.74.85,2.83,2.83,0,0,1,.28,1.34,2.71,2.71,0,0,1-.5,1.64,2.24,2.24,0,0,1-1.46.85l2.3,3.86H51.75l-1.89-3.65h-1v3.65h-2Zm2,3.78h1.18l.57,0a1.78,1.78,0,0,0,.54-.11,1,1,0,0,0,.4-.31.91.91,0,0,0,.16-.58,1,1,0,0,0-.14-.55.93.93,0,0,0-.36-.32,1.73,1.73,0,0,0-.5-.15l-.54,0H48.87Z"/><path class="cls-2" d="M54.7,107.91a5.26,5.26,0,0,1,.36-2,4.37,4.37,0,0,1,2.56-2.47,5.4,5.4,0,0,1,2-.34,5.33,5.33,0,0,1,2,.34,4.4,4.4,0,0,1,1.55,1,4.31,4.31,0,0,1,1,1.51,5.51,5.51,0,0,1,0,4,4.31,4.31,0,0,1-1,1.51,4.4,4.4,0,0,1-1.55,1,5.33,5.33,0,0,1-2,.34,5.4,5.4,0,0,1-2-.34,4.37,4.37,0,0,1-2.56-2.47A5.21,5.21,0,0,1,54.7,107.91Zm2.07,0a3.44,3.44,0,0,0,.19,1.18,3,3,0,0,0,.57.92,2.4,2.4,0,0,0,.89.61,2.84,2.84,0,0,0,1.15.22,2.89,2.89,0,0,0,1.16-.22,2.36,2.36,0,0,0,.88-.61,2.64,2.64,0,0,0,.57-.92,3.44,3.44,0,0,0,.2-1.18,3.48,3.48,0,0,0-.2-1.18,2.59,2.59,0,0,0-.57-.93,2.49,2.49,0,0,0-.88-.61,2.89,2.89,0,0,0-1.16-.22,2.84,2.84,0,0,0-1.15.22,2.52,2.52,0,0,0-.89.61,2.91,2.91,0,0,0-.57.93A3.48,3.48,0,0,0,56.77,107.91Z"/><path class="cls-2" d="M65.9,103.34h2.71l3.84,6.34h0v-6.34h2v9.13h-2.6L67.92,106h0v6.5h-2Z"/><path class="cls-2" d="M78.08,105.12H75.5v-1.78h7.14v1.78H80.07v7.35h-2Z"/><path class="cls-2" d="M87.43,103.34h3.49a6.12,6.12,0,0,1,1.31.14,3.08,3.08,0,0,1,1.08.45,2.26,2.26,0,0,1,.74.85,2.83,2.83,0,0,1,.28,1.34,2.71,2.71,0,0,1-.5,1.64,2.24,2.24,0,0,1-1.46.85l2.3,3.86H92.28l-1.88-3.65h-1v3.65h-2Zm2,3.78h1.18l.57,0a1.78,1.78,0,0,0,.54-.11,1,1,0,0,0,.4-.31.91.91,0,0,0,.16-.58,1,1,0,0,0-.14-.55.93.93,0,0,0-.36-.32,1.73,1.73,0,0,0-.5-.15l-.54,0H89.41Z"/><path class="cls-2" d="M99.15,103.34h1.64l3.93,9.13h-2.25l-.77-1.94H98.19l-.75,1.94h-2.2Zm.76,2.66-1.1,2.83H101Z"/><path class="cls-2" d="M105.71,103.34h2.7l3.84,6.34h0v-6.34h2v9.13h-2.6l-3.94-6.5h0v6.5h-2Z"/><path class="cls-2" d="M124.38,111.82a6.77,6.77,0,0,1-1.84.67,9,9,0,0,1-2,.21,5.4,5.4,0,0,1-2-.34,4.37,4.37,0,0,1-2.56-2.47,5.65,5.65,0,0,1,0-4,4.37,4.37,0,0,1,2.56-2.47,5.4,5.4,0,0,1,2-.34,7,7,0,0,1,2,.27,3.82,3.82,0,0,1,1.6.91l-1.4,1.54a2.73,2.73,0,0,0-.92-.64,3.2,3.2,0,0,0-1.28-.22,2.84,2.84,0,0,0-1.15.22,2.52,2.52,0,0,0-.89.61,2.91,2.91,0,0,0-.57.93,3.48,3.48,0,0,0-.19,1.18,3.44,3.44,0,0,0,.19,1.18,3,3,0,0,0,.57.92,2.4,2.4,0,0,0,.89.61,2.84,2.84,0,0,0,1.15.22,4.15,4.15,0,0,0,1.13-.14,4,4,0,0,0,.75-.31v-1.48h-1.62v-1.85h3.53Z"/><path class="cls-2" d="M126.28,103.34h6.14v1.86h-4.15v1.7h3.92v1.86h-3.92v1.85h4.37v1.86h-6.36Z"/><path class="cls-2" d="M48.53,124.22h6.06v1.85H50.52v1.86h3.76v1.85H50.52v3.56h-2Z"/><path class="cls-2" d="M56.06,124.22h3.49a6.13,6.13,0,0,1,1.31.13,3.13,3.13,0,0,1,1.09.45,2.39,2.39,0,0,1,.74.86A2.92,2.92,0,0,1,63,127a2.64,2.64,0,0,1-.5,1.64,2.22,2.22,0,0,1-1.45.86l2.29,3.85H60.92L59,129.69h-1v3.65h-2Zm2,3.77h1.17a5.62,5.62,0,0,0,.57,0,1.78,1.78,0,0,0,.54-.11,1,1,0,0,0,.4-.3,1.16,1.16,0,0,0,0-1.14.87.87,0,0,0-.35-.31,1.33,1.33,0,0,0-.5-.15,3.48,3.48,0,0,0-.55,0h-1.3Z"/><path class="cls-2" d="M63.87,128.78a5.21,5.21,0,0,1,.37-2,4.35,4.35,0,0,1,1-1.52,4.4,4.4,0,0,1,1.55-1,5.54,5.54,0,0,1,2-.33,5.62,5.62,0,0,1,2,.33,4.35,4.35,0,0,1,2.56,2.48,5.63,5.63,0,0,1,0,4,4.38,4.38,0,0,1-1,1.52,4.67,4.67,0,0,1-1.54,1,5.62,5.62,0,0,1-2,.33,5.54,5.54,0,0,1-2-.33,4.71,4.71,0,0,1-1.55-1,4.35,4.35,0,0,1-1-1.52A5.21,5.21,0,0,1,63.87,128.78Zm2.07,0a3.44,3.44,0,0,0,.2,1.18,2.68,2.68,0,0,0,.57.93,2.62,2.62,0,0,0,.88.61,3.07,3.07,0,0,0,1.16.22,3,3,0,0,0,1.15-.22,2.66,2.66,0,0,0,.89-.61,3,3,0,0,0,.57-.93,3.73,3.73,0,0,0,0-2.35,3,3,0,0,0-.57-.94,2.66,2.66,0,0,0-.89-.61,2.84,2.84,0,0,0-1.15-.22,2.89,2.89,0,0,0-1.16.22,2.61,2.61,0,0,0-1.45,1.55A3.42,3.42,0,0,0,65.94,128.78Z"/><path class="cls-2" d="M75.08,124.22h2.7l3.84,6.34h0v-6.34h2v9.12H81l-3.94-6.49h0v6.49h-2Z"/><path class="cls-2" d="M87.25,126H84.67v-1.78h7.15V126H89.24v7.34h-2Z"/><path class="cls-2" d="M94.91,130.91H91.77v-1.55h3.14Z"/><path class="cls-2" d="M96.59,124.22h6.13v1.85H98.57v1.7h3.92v1.86H98.57v1.86H103v1.85H96.59Z"/><path class="cls-2" d="M104.63,124.22h2.71l3.84,6.34h0v-6.34h2v9.12h-2.6l-3.94-6.49h0v6.49h-2Z"/><path class="cls-2" d="M115.14,124.22h3a8.53,8.53,0,0,1,2.05.24,4.74,4.74,0,0,1,1.71.8,3.84,3.84,0,0,1,1.15,1.42,4.73,4.73,0,0,1,.43,2.13,4.47,4.47,0,0,1-.41,1.95,4.33,4.33,0,0,1-1.12,1.42,4.85,4.85,0,0,1-1.62.86,6.14,6.14,0,0,1-1.93.3h-3.25Zm2,7.27h1a5.31,5.31,0,0,0,1.29-.15,2.66,2.66,0,0,0,1-.47,2.27,2.27,0,0,0,.69-.86,3.19,3.19,0,0,0,.24-1.31,2.64,2.64,0,0,0-.24-1.16,2.35,2.35,0,0,0-.67-.82,2.87,2.87,0,0,0-1-.49,4.7,4.7,0,0,0-1.2-.16h-1.17Z"/></g></g></svg>