<?xml version="1.0" encoding="utf-8"?>
<!-- Generator: Adobe Illustrator 23.1.0, SVG Export Plug-In . SVG Version: 6.00 Build 0)  -->
<svg version="1.1" id="Layer_1" xmlns="http://www.w3.org/2000/svg" xmlns:xlink="http://www.w3.org/1999/xlink" x="0px" y="0px"
	 viewBox="0 0 400 400" style="enable-background:new 0 0 400 400;" xml:space="preserve">
<style type="text/css">
	.st0{fill:#FFFFFF;}
	.st1{fill:url(#SVGID_1_);}
	.st2{fill:url(#SVGID_2_);}
	.st3{fill:#CCCCCC;}
	.st4{fill:#663399;}
	.st5{fill:#999999;}
</style>
<g>
	<path class="st0" d="M197.03,290.14c43.82,0,87.65,0,131.47,0c1.66,0,3.32,0.02,4.98-0.01c9.65-0.17,17.32-8.51,17.32-18.8
		c0-56.83,0.02-113.66-0.07-170.49c0-2.7-0.63-5.63-1.74-8.06c-3.38-7.43-9.26-10.7-16.92-10.7c-89.95,0.02-179.89,0.01-269.84,0.01
		c-0.45,0-0.89,0-1.34,0.01c-9.8,0.2-17.41,8.45-17.41,18.91c0,56.83,0,113.66,0.01,170.49c0,0.95,0.04,1.92,0.19,2.85
		c1.61,9.5,8.69,15.78,17.85,15.78C106.7,290.14,151.87,290.13,197.03,290.14z M27.2,293.66c0.21,1.86,0.28,3.49,0.59,5.06
		c1.8,9.1,8.38,15.2,16.4,15.2c101.97,0,203.95,0,305.92,0c0.89,0,1.8-0.02,2.67-0.18c6.8-1.25,12.14-7.07,13.72-15.02
		c0.32-1.61,0.37-3.29,0.55-5.06C253.64,293.66,140.64,293.66,27.2,293.66z"/>
	<linearGradient id="SVGID_1_" gradientUnits="userSpaceOnUse" x1="43.4855" y1="186.1116" x2="350.8044" y2="186.1116">
		<stop  offset="0" style="stop-color:#B07EB7"/>
		<stop  offset="0.5" style="stop-color:#8C3D96"/>
		<stop  offset="1" style="stop-color:#762A90"/>
	</linearGradient>
	<path class="st1" d="M197.03,290.14c-45.16,0-90.33,0.01-135.49-0.01c-9.15,0-16.24-6.28-17.85-15.78
		c-0.16-0.93-0.19-1.9-0.19-2.85c-0.01-56.83-0.01-113.66-0.01-170.49c0-10.46,7.61-18.72,17.41-18.91
		c0.45-0.01,0.89-0.01,1.34-0.01c89.95,0,179.89,0.01,269.84-0.01c7.66,0,13.54,3.27,16.92,10.7c1.1,2.43,1.73,5.36,1.74,8.06
		c0.1,56.83,0.07,113.66,0.07,170.49c0,10.29-7.67,18.63-17.32,18.8c-1.66,0.03-3.32,0.01-4.98,0.01
		C284.68,290.14,240.85,290.14,197.03,290.14z M197.12,279.63c45.1,0,90.21,0,135.31,0c5.5,0,8.56-3.23,8.56-9.11
		c0.01-56.29,0.01-112.57,0-168.86c0-0.95-0.03-1.93-0.25-2.84c-1.01-4.22-3.94-6.26-8.93-6.26c-89.76,0-179.52,0.02-269.28-0.05
		c-5.1,0-9.31,2.88-9.3,9.92c0.12,55.81,0.12,111.62,0,167.42c-0.01,6.71,4.08,9.85,9.16,9.84
		C107.3,279.58,152.21,279.63,197.12,279.63z"/>
	<linearGradient id="SVGID_2_" gradientUnits="userSpaceOnUse" x1="27.2" y1="303.788" x2="367.04" y2="303.788">
		<stop  offset="0" style="stop-color:#B07EB7"/>
		<stop  offset="0.5" style="stop-color:#8C3D96"/>
		<stop  offset="1" style="stop-color:#762A90"/>
	</linearGradient>
	<path class="st2" d="M27.2,293.66c113.44,0,226.44,0,339.84,0c-0.18,1.76-0.23,3.44-0.55,5.06c-1.58,7.95-6.91,13.77-13.72,15.02
		c-0.87,0.16-1.78,0.18-2.67,0.18c-101.97,0.01-203.95,0.01-305.92,0c-8.01,0-14.6-6.1-16.4-15.2
		C27.48,297.14,27.41,295.51,27.2,293.66z M197.16,300.9c7.02,0,14.05,0,21.07,0c1.28,0,2.58,0.17,3.82-0.07
		c0.71-0.14,1.3-0.96,1.94-1.48c-0.65-0.58-1.27-1.21-1.96-1.73c-0.21-0.16-0.62-0.03-0.94-0.03c-15.96,0-31.92,0-47.88,0
		c-0.51,0-1.14-0.16-1.5,0.1c-0.56,0.41-1.21,1.07-1.29,1.69c-0.05,0.43,0.75,1.11,1.3,1.43c0.4,0.23,1,0.08,1.51,0.08
		C181.2,300.9,189.18,300.9,197.16,300.9z"/>
	<path class="st0" d="M197.12,279.63c-44.91,0-89.83-0.05-134.74,0.07c-5.08,0.01-9.18-3.13-9.16-9.84
		c0.12-55.81,0.12-111.62,0-167.42c-0.02-7.04,4.2-9.93,9.3-9.92c89.76,0.07,179.52,0.05,269.28,0.05c4.99,0,7.92,2.03,8.93,6.26
		c0.22,0.91,0.25,1.89,0.25,2.84c0.01,56.29,0.01,112.57,0,168.86c0,5.87-3.06,9.11-8.56,9.11
		C287.33,279.63,242.22,279.63,197.12,279.63z"/>
	<path class="st0" d="M197.16,300.9c-7.98,0-15.96,0-23.94,0c-0.51,0-1.11,0.16-1.51-0.08c-0.55-0.32-1.35-1-1.3-1.43
		c0.07-0.63,0.73-1.29,1.29-1.69c0.36-0.26,0.99-0.1,1.5-0.1c15.96,0,31.92,0,47.88,0c0.32,0,0.73-0.13,0.94,0.03
		c0.69,0.52,1.31,1.14,1.96,1.73c-0.64,0.51-1.23,1.34-1.94,1.48c-1.23,0.24-2.54,0.07-3.82,0.07
		C211.2,300.9,204.18,300.9,197.16,300.9z"/>
</g>
<path class="st3" d="M58.85,279.13c0,0,277.35,0.51,273.59,0.5c-3.77-0.01,8.56,5.34,8.56-13.55l0-108.98l-60.65,54.25l-72-100.26
	l-77.8,114.79l-56.06-32.45l-21.26,56.67l0.18,22.12C53.4,272.22,55.31,278.55,58.85,279.13z"/>
<path class="st4" d="M53.22,254.82l84.56-61.61l111.63,86.27l56.06-88.96l28.92,88.96l-275.54-0.19c0,0-4.78-0.7-5.44-3.84
	C52.73,272.3,53.22,254.82,53.22,254.82z"/>
<polygon class="st5" points="86.98,200.66 123.29,125.13 170.4,165.82 147.62,200.66 137.78,193.21 109.59,213.75 "/>
<polygon class="st5" points="237.88,152.21 285.66,96.55 334.39,163 280.34,211.35 "/>
</svg>
