<?xml version="1.0" encoding="UTF-8" standalone="no"?>
<!DOCTYPE svg PUBLIC "-//W3C//DTD SVG 1.1//EN" "http://www.w3.org/Graphics/SVG/1.1/DTD/svg11.dtd">
<svg width="100%" height="100%" viewBox="0 0 350 350" version="1.1" xmlns="http://www.w3.org/2000/svg" xmlns:xlink="http://www.w3.org/1999/xlink" xml:space="preserve" style="fill-rule:evenodd;clip-rule:evenodd;stroke-linejoin:round;stroke-miterlimit:1.41421;">
    <g transform="matrix(1.87781,0,0,1.87781,-45.0651,-64.042)">
        <path d="M208.685,144.984C205.102,163.703 195.901,180.422 182.918,193.335L124.619,49.923L114.444,54.06L174.175,200.995C158.43,213.222 138.653,220.492 117.193,220.492C75.337,220.492 39.889,192.84 28.137,154.807L55.252,117.073L48.695,112.362L25.61,144.487C24.544,138.925 23.999,133.175 23.999,127.298C23.999,75.863 65.758,34.105 117.193,34.105C168.05,34.105 209.447,74.931 210.343,125.57L181.3,66.891L173.877,74.657L208.685,144.984Z" style="fill:rgb(93,84,153);"/>
    </g>
    <g transform="matrix(1.11792,0,0,1,-12.3834,0)">
        <rect x="90.179" y="192.116" width="14.836" height="24.93" style="fill:white;"/>
    </g>
    <g transform="matrix(0.333215,-0.135457,0.805438,1.98132,61.2687,-190.253)">
        <path d="M98.54,175.795L60.988,181.398C53.058,186.346 46.594,191.277 41.418,196.165L98.54,187.643L98.54,175.795Z" style="fill:white;"/>
    </g>
    <g transform="matrix(0.333215,-0.135457,0.805438,1.98132,61.2687,-190.253)">
        <path d="M98.54,253.671C79.877,254.988 60.73,256.109 41.197,257.01L41.197,117.752L98.54,117.752L98.54,253.671Z" style="fill:white;"/>
    </g>
    <g transform="matrix(0.323292,-0.15768,0.845691,1.73392,57.2837,-152.517)">
        <path d="M41.197,265.789L41.197,117.752L41.197,265.789Z" style="fill:rgb(244,244,244);"/>
    </g>
    <g>
        <g transform="matrix(0.35368,0.254145,-0.583541,0.812084,109.143,-6.29576)">
            <path d="M88.291,235.361L88.291,161.078L123.105,161.078L123.105,248.331C111.01,244.348 99.355,240.035 88.291,235.361Z" style="fill:rgb(44,49,62);"/>
        </g>
        <g transform="matrix(1.55915,0,0,1.49227,-7.77641,-106.967)">
            <path d="M50.485,178.527L29.437,178.527L38.203,164.466L41.719,164.466L50.485,178.527Z" style="fill:rgb(44,49,62);"/>
        </g>
        <g transform="matrix(0.35351,-0.254381,0.328782,0.456903,-33.6865,104.67)">
            <path d="M123.105,260.081L88.291,276.56L88.291,161.078L123.105,161.078L123.105,260.081Z" style="fill:rgb(44,49,62);"/>
        </g>
    </g>
    <g transform="matrix(0.400548,0.418458,-0.660869,1.33712,347.874,-190.76)">
        <path d="M88.291,223.255L88.291,161.078L123.105,161.078L123.105,229.916L88.291,223.255Z" style="fill:rgb(92,99,68);"/>
    </g>
    <g transform="matrix(1.76577,0,0,2.45707,215.461,-356.518)">
        <path d="M50.485,178.527L29.437,178.527L38.203,164.466L41.719,164.466L50.485,178.527Z" style="fill:rgb(92,99,68);"/>
    </g>
    <g transform="matrix(0.400355,-0.418847,0.593659,1.19944,150.47,-80.0743)">
        <path d="M123.105,252.944L120.597,254.773C111.341,261.016 100.504,266.496 88.291,271.179L88.291,161.078L123.105,161.078L123.105,252.944Z" style="fill:rgb(92,99,68);"/>
    </g>
    <g transform="matrix(0.94785,0,0,0.876044,10.7213,1.74608)">
        <path d="M190.756,39.236L158.532,39.236L166.588,17.563L182.7,17.563L190.756,39.236Z" style="fill:white;"/>
    </g>
    <g transform="matrix(1.97739,0.831218,-0.387516,0.921863,-147.317,-133.761)">
        <rect x="167.179" y="39.298" width="5.717" height="21.918" style="fill:white;"/>
    </g>
    <g transform="matrix(0.33158,0.139412,-0.703203,1.67251,232.743,-172.843)">
        <path d="M41.197,214.818L41.197,117.752L98.54,117.752L98.54,121.734L75.242,127.577L98.54,131.228L98.54,282.951C78.976,281.741 59.804,280.288 41.197,278.609L41.197,224.615L52.276,225.959L74.275,218.83L41.197,214.818Z" style="fill:white;"/>
        <clipPath id="_clip1">
            <path d="M41.197,214.818L41.197,117.752L98.54,117.752L98.54,121.734L75.242,127.577L98.54,131.228L98.54,282.951C78.976,281.741 59.804,280.288 41.197,278.609L41.197,224.615L52.276,225.959L74.275,218.83L41.197,214.818Z"/>
        </clipPath>
        <g clip-path="url(#_clip1)">
            <g transform="matrix(2.56282,-0.213623,1.07753,0.508086,-410.235,137.539)">
                <rect x="90.179" y="202.475" width="9.67" height="18.849" style="fill:white;"/>
            </g>
            <g transform="matrix(2.56282,-0.213623,1.07753,0.508086,-410.235,137.539)">
                <rect x="97.618" y="206.84" width="6.253" height="7.125" style="fill:white;"/>
            </g>
        </g>
    </g>
</svg>
